<svg xmlns="http://www.w3.org/2000/svg"  viewBox="0 0 100 100" width="500px" height="500px" baseProfile="basic"><path fill="#c7ede6" d="M87.215,56.71C88.35,54.555,89,52.105,89,49.5c0-6.621-4.159-12.257-10.001-14.478	C78.999,35.015,79,35.008,79,35c0-11.598-9.402-21-21-21c-9.784,0-17.981,6.701-20.313,15.757C36.211,29.272,34.638,29,33,29	c-7.692,0-14.023,5.793-14.89,13.252C12.906,43.353,9,47.969,9,53.5C9,59.851,14.149,65,20.5,65c0.177,0,0.352-0.012,0.526-0.022	C21.022,65.153,21,65.324,21,65.5C21,76.822,30.178,86,41.5,86c6.437,0,12.175-2.972,15.934-7.614C59.612,80.611,62.64,82,66,82	c4.65,0,8.674-2.65,10.666-6.518C77.718,75.817,78.837,76,80,76c6.075,0,11-4.925,11-11C91,61.689,89.53,58.727,87.215,56.71z"/><path fill="#fdfcef" d="M87.906,65.406c0,0,1.567,0,3.5,0s3.5-1.567,3.5-3.5c0-1.781-1.335-3.234-3.055-3.455 c0.028-0.179,0.055-0.358,0.055-0.545c0-1.933-1.567-3.5-3.5-3.5c-1.032,0-1.95,0.455-2.59,1.165 c-0.384-1.808-1.987-3.165-3.91-3.165c-2.209,0-4,1.791-4,4c0,0.191,0.03,0.374,0.056,0.558c-0.428-0.344-0.964-0.558-1.556-0.558 c-1.228,0-2.245,0.887-2.455,2.055c-0.179-0.028-0.358-0.055-0.545-0.055c-1.933,0-3.5,1.567-3.5,3.5s1.567,3.5,3.5,3.5 s7.5,0,7.5,0v0.5h7V65.406z"/><path fill="#472b29" d="M89.656,60.906c-0.138,0-0.25-0.112-0.25-0.25c0-1.223,0.995-2.218,2.218-2.218 c0.034,0.009,0.737-0.001,1.244,0.136c0.133,0.036,0.212,0.173,0.176,0.306c-0.036,0.134-0.173,0.213-0.306,0.176 c-0.444-0.12-1.1-0.12-1.113-0.118c-0.948,0-1.719,0.771-1.719,1.718C89.906,60.794,89.794,60.906,89.656,60.906z"/><circle cx="82.906" cy="65.406" r=".5" fill="#472b29"/><path fill="#472b29" d="M91.406,65.906h-3.5c-0.276,0-0.5-0.224-0.5-0.5s0.224-0.5,0.5-0.5h3.5c1.654,0,3-1.346,3-3 c0-1.496-1.125-2.768-2.618-2.959c-0.134-0.018-0.255-0.088-0.336-0.196s-0.115-0.244-0.094-0.377 c0.023-0.154,0.048-0.308,0.048-0.468c0-1.654-1.346-3-3-3c-0.85,0-1.638,0.355-2.219,1c-0.125,0.139-0.321,0.198-0.5,0.148 c-0.182-0.049-0.321-0.195-0.36-0.379c-0.341-1.604-1.78-2.769-3.421-2.769c-1.93,0-3.5,1.57-3.5,3.5 c0,0.143,0.021,0.28,0.041,0.418c0.029,0.203-0.063,0.438-0.242,0.54c-0.179,0.102-0.396,0.118-0.556-0.01 c-0.365-0.293-0.794-0.448-1.243-0.448c-0.966,0-1.792,0.691-1.963,1.644c-0.048,0.267-0.296,0.446-0.569,0.405 c-0.154-0.024-0.308-0.049-0.468-0.049c-1.654,0-3,1.346-3,3s1.346,3,3,3h7.5c0.276,0,0.5,0.224,0.5,0.5s-0.224,0.5-0.5,0.5h-7.5 c-2.206,0-4-1.794-4-4s1.794-4,4-4c0.059,0,0.116,0.002,0.174,0.006c0.414-1.186,1.537-2.006,2.826-2.006 c0.349,0,0.689,0.061,1.011,0.18c0.165-2.333,2.115-4.18,4.489-4.18c1.831,0,3.466,1.127,4.153,2.774 c0.68-0.498,1.502-0.774,2.347-0.774c2.206,0,4,1.794,4,4c0,0.048-0.001,0.095-0.004,0.142c1.743,0.448,3.004,2.027,3.004,3.858 C95.406,64.112,93.612,65.906,91.406,65.906z"/><path fill="#472b29" d="M85.906,64.906c-0.159,0-0.841,0-1,0c-0.276,0-0.5,0.224-0.5,0.5s0.224,0.5,0.5,0.5 c0.159,0,0.841,0,1,0c0.276,0,0.5-0.224,0.5-0.5S86.182,64.906,85.906,64.906z"/><path fill="#fff" d="M64.594,22.008h-10c-0.276,0-0.5-0.224-0.5-0.5s0.224-0.5,0.5-0.5h10c0.276,0,0.5,0.224,0.5,0.5	S64.871,22.008,64.594,22.008z M67.594,22.008h-1c-0.276,0-0.5-0.224-0.5-0.5s0.224-0.5,0.5-0.5h1c0.276,0,0.5,0.224,0.5,0.5	S67.871,22.008,67.594,22.008z M72.585,24.008h-8.991c-0.276,0-0.5-0.224-0.5-0.5s0.224-0.5,0.5-0.5h8.991	c0.276,0,0.5,0.224,0.5,0.5S72.861,24.008,72.585,24.008z M61.594,24.008h-1c-0.276,0-0.5-0.224-0.5-0.5s0.224-0.5,0.5-0.5h1	c0.276,0,0.5,0.224,0.5,0.5S61.871,24.008,61.594,24.008z M58.594,24.008h-2c-0.276,0-0.5-0.224-0.5-0.5s0.224-0.5,0.5-0.5h2	c0.276,0,0.5,0.224,0.5,0.5S58.871,24.008,58.594,24.008z M64.594,26.008h-2c-0.276,0-0.5-0.224-0.5-0.5s0.224-0.5,0.5-0.5h2	c0.276,0,0.5,0.224,0.5,0.5S64.87,26.008,64.594,26.008z M67.594,17.008c-0.177,0-0.823,0-1,0c-0.276,0-0.5,0.224-0.5,0.5	s0.224,0.5,0.5,0.5c0.177,0,0.823,0,1,0c0.276,0,0.5-0.224,0.5-0.5S67.87,17.008,67.594,17.008z M67.594,19.008	c-0.177,0-4.823,0-5,0c-0.276,0-0.5,0.224-0.5,0.5s0.224,0.5,0.5,0.5c0.177,0,4.823,0,5,0c0.276,0,0.5-0.224,0.5-0.5	S67.87,19.008,67.594,19.008z M72.594,21.008c-0.177,0-2.823,0-3,0c-0.276,0-0.5,0.224-0.5,0.5s0.224,0.5,0.5,0.5	c0.177,0,2.823,0,3,0c0.276,0,0.5-0.224,0.5-0.5S72.87,21.008,72.594,21.008z"/><path fill="#fff" d="M35.647,82.001h-9.969c-0.274,0-0.497-0.223-0.497-0.497c0-0.274,0.223-0.497,0.497-0.497h9.969	c0.274,0,0.497,0.223,0.497,0.497C36.144,81.778,35.923,82.001,35.647,82.001z M39.008,81.504c0-0.274-0.223-0.497-0.497-0.497	h-1.437c-0.274,0-0.497,0.223-0.497,0.497c0,0.274,0.223,0.497,0.497,0.497h1.437C38.786,82.001,39.008,81.778,39.008,81.504z M43.038,81.504c0-0.274-0.223-0.497-0.497-0.497h-2.531c-0.274,0-0.497,0.223-0.497,0.497c0,0.274,0.223,0.497,0.497,0.497h2.531	C42.816,82.001,43.038,81.778,43.038,81.504z M43.038,83.492c0-0.274-0.223-0.497-0.497-0.497h-9.558	c-0.274,0-0.497,0.223-0.497,0.497c0,0.274,0.223,0.497,0.497,0.497h9.558C42.816,83.989,43.038,83.766,43.038,83.492z M31.759,83.492c0-0.274-0.223-0.497-0.497-0.497h-0.576c-0.274,0-0.497,0.223-0.497,0.497c0,0.274,0.223,0.497,0.497,0.497h0.576	C31.536,83.989,31.759,83.766,31.759,83.492z M29.397,83.492c0-0.274-0.223-0.497-0.497-0.497h-1.448	c-0.274,0-0.497,0.223-0.497,0.497c0,0.274,0.223,0.497,0.497,0.497h1.448C29.175,83.989,29.397,83.766,29.397,83.492z M38.477,79.516c0-0.274-0.223-0.497-0.497-0.497h-4.996c-0.274,0-0.497,0.223-0.497,0.497s0.223,0.497,0.497,0.497h4.996	C38.255,80.013,38.477,79.79,38.477,79.516z M38.477,77.528c0-0.274-0.223-0.497-0.497-0.497h-1.249	c-0.274,0-0.497,0.223-0.497,0.497s0.223,0.497,0.497,0.497h1.249C38.255,78.025,38.477,77.803,38.477,77.528z M35.228,85.48	c0-0.274-0.223-0.497-0.497-0.497h-1.747c-0.274,0-0.497,0.223-0.497,0.497c0,0.274,0.223,0.497,0.497,0.497h1.747	C35.006,85.977,35.228,85.754,35.228,85.48z"/><path fill="#fdfcef" d="M23.555,51.475h7.934c0.133,0,0.71,0,0.874,0c2.161,0,3.903-1.756,3.818-3.889 c-0.06-1.503-1.084-2.828-2.522-3.356c-0.752-0.276-1.466-0.285-2.123-0.143c-0.093-1.392-1.274-2.494-2.72-2.494 c-0.79,0-1.5,0.331-1.998,0.856c0.109-0.526,0.121-1.087,0.011-1.665c-0.342-1.802-1.88-3.208-3.739-3.431 c-2.542-0.305-4.715,1.532-4.9,3.913c-0.722-0.936-1.865-1.543-3.155-1.543c-2.185,0-3.957,1.734-3.957,3.873 c0,0.163,0.014,0.322,0.034,0.48c-1.733,0.355-3.035,1.858-3.035,3.66c0,2.065,1.711,3.739,3.821,3.739c0.023,0,1.657,0,3.54,0 M21.555,51.475h0.36"/><path fill="#472b29" d="M7.578,47.735c0-1.85,1.239-3.483,3.003-4.038c-0.001-0.035-0.001-0.069-0.001-0.103 c0-2.411,1.999-4.373,4.457-4.373c1.056,0,2.051,0.359,2.842,1.007c0.268-0.893,0.798-1.689,1.546-2.302 c1.041-0.853,2.361-1.238,3.726-1.071c2.074,0.248,3.789,1.824,4.17,3.833c0.046,0.243,0.074,0.485,0.083,0.727 c0.437-0.21,0.921-0.323,1.414-0.323c1.506,0,2.791,1.028,3.135,2.424c0.64-0.06,1.27,0.019,1.88,0.244 c1.637,0.602,2.782,2.131,2.849,3.806c0.046,1.149-0.37,2.242-1.173,3.078c-0.813,0.846-1.959,1.331-3.144,1.331h-8.807 c-0.276,0-0.5-0.224-0.5-0.5s0.224-0.5,0.5-0.5h8.807c0.927,0,1.788-0.364,2.423-1.024c0.612-0.637,0.93-1.47,0.895-2.346 c-0.051-1.274-0.933-2.442-2.195-2.905c-0.603-0.223-1.207-0.263-1.846-0.125c-0.142,0.031-0.29-0.002-0.406-0.089 c-0.116-0.088-0.188-0.22-0.198-0.366c-0.076-1.136-1.052-2.027-2.221-2.027c-0.626,0-1.207,0.249-1.635,0.7 c-0.154,0.163-0.397,0.202-0.594,0.1c-0.198-0.104-0.303-0.326-0.258-0.545c0.1-0.482,0.103-0.977,0.009-1.472 c-0.301-1.585-1.661-2.83-3.307-3.027c-1.088-0.126-2.144,0.173-2.973,0.853c-0.804,0.66-1.29,1.584-1.369,2.604 c-0.016,0.206-0.157,0.38-0.355,0.44c-0.198,0.057-0.413-0.01-0.539-0.174c-0.662-0.858-1.668-1.349-2.76-1.349 c-1.906,0-3.457,1.513-3.457,3.373c0,0.142,0.012,0.28,0.03,0.417c0.033,0.26-0.14,0.501-0.396,0.554 c-1.528,0.312-2.636,1.646-2.636,3.17c0,1.786,1.49,3.239,3.321,3.239h3.54c0.276,0,0.5,0.224,0.5,0.5s-0.224,0.5-0.5,0.5h-3.54 C9.515,51.976,7.577,50.074,7.578,47.735z M21.055,51.476c0-0.276,0.224-0.5,0.5-0.5h0.36c0.276,0,0.5,0.224,0.5,0.5 s-0.224,0.5-0.5,0.5h-0.36C21.279,51.976,21.055,51.752,21.055,51.476z"/><path fill="#472b29" d="M13.605,46.172c0.018,0,0.036-0.002,0.055-0.006c0.135-0.03,0.22-0.164,0.189-0.299 c-0.037-0.164-0.094-0.325-0.17-0.479c-0.604-1.224-2.272-1.677-3.722-1.007c-0.125,0.058-0.18,0.206-0.122,0.331 c0.058,0.126,0.207,0.179,0.332,0.122c1.201-0.556,2.577-0.208,3.063,0.774c0.058,0.118,0.102,0.242,0.13,0.367 C13.387,46.093,13.49,46.172,13.605,46.172z"/><path fill="#472b29" d="M18.764,51.976h1.107c0.276,0,0.5-0.224,0.5-0.5s-0.224-0.5-0.5-0.5h-1.107 c-0.276,0-0.5,0.224-0.5,0.5S18.487,51.976,18.764,51.976z"/><path fill="#ef9922" d="M65.667,73.333H40.333c-4.787,0-8.667-3.88-8.667-8.667V39.333c0-4.787,3.88-8.667,8.667-8.667	h25.333c4.787,0,8.667,3.88,8.667,8.667v25.333C74.333,69.453,70.453,73.333,65.667,73.333z"/><path fill="#e85654" d="M65.333,35.333H40.667c-4.963,0-9,4.037-9,9v20.333c0,4.779,3.888,8.667,8.667,8.667h25.333	c4.779,0,8.667-3.888,8.667-8.667V44.333C74.333,39.371,70.296,35.333,65.333,35.333z"/><path fill="#472b29" d="M31.667,44.833c-0.276,0-0.5-0.224-0.5-0.5c0-5.238,4.262-9.5,9.5-9.5h24.666	c0.276,0,0.5,0.224,0.5,0.5s-0.224,0.5-0.5,0.5H40.667c-4.687,0-8.5,3.813-8.5,8.5C32.167,44.61,31.943,44.833,31.667,44.833z"/><path fill="#472b29" d="M65.667,74H40.333C35.187,74,31,69.813,31,64.667V39.333C31,34.187,35.187,30,40.333,30h25.333	C70.813,30,75,34.187,75,39.333v25.333C75,69.813,70.813,74,65.667,74z M40.333,31.333c-4.411,0-8,3.589-8,8v25.333	c0,4.411,3.589,8,8,8h25.333c4.411,0,8-3.589,8-8V39.333c0-4.411-3.589-8-8-8H40.333z"/><g><circle cx="42.667" cy="43" r="2" fill="#b77748"/><path fill="#472b29" d="M42.667,41c1.105,0,2,0.895,2,2s-0.895,2-2,2c-1.105,0-2-0.895-2-2S41.562,41,42.667,41 M42.667,40.5c-1.378,0-2.5,1.121-2.5,2.5s1.122,2.5,2.5,2.5s2.5-1.121,2.5-2.5S44.045,40.5,42.667,40.5L42.667,40.5z"/></g><g><circle cx="63.333" cy="43" r="2" fill="#b77748"/><path fill="#472b29" d="M63.333,41c1.105,0,2,0.895,2,2s-0.895,2-2,2c-1.105,0-2-0.895-2-2S62.229,41,63.333,41 M63.333,40.5c-1.378,0-2.5,1.121-2.5,2.5s1.122,2.5,2.5,2.5s2.5-1.121,2.5-2.5S64.712,40.5,63.333,40.5L63.333,40.5z"/></g><g><path fill="#fff" d="M53,54.333c-6.065,0-11-4.935-11-11V43c0-0.369,0.298-0.667,0.667-0.667s0.667,0.298,0.667,0.667 v0.333C43.333,48.663,47.67,53,53,53s9.667-4.337,9.667-9.667V43c0-0.369,0.298-0.667,0.667-0.667S64,42.631,64,43v0.333 C64,49.399,59.065,54.333,53,54.333z"/><path fill="#472b29" d="M63.333,42.333C63.702,42.333,64,42.631,64,43v0.333c0,6.065-4.935,11-11,11s-11-4.935-11-11V43 c0-0.369,0.298-0.667,0.667-0.667c0.369,0,0.667,0.298,0.667,0.667v0.333C43.333,48.663,47.67,53,53,53s9.667-4.337,9.667-9.667V43 C62.667,42.631,62.965,42.333,63.333,42.333 M63.333,41.833c-0.643,0-1.167,0.523-1.167,1.167v0.333 c0,5.055-4.112,9.167-9.167,9.167s-9.167-4.112-9.167-9.167V43c0-0.643-0.523-1.167-1.167-1.167S41.5,42.357,41.5,43v0.333 c0,6.341,5.159,11.5,11.5,11.5s11.5-5.159,11.5-11.5V43C64.5,42.357,63.977,41.833,63.333,41.833L63.333,41.833z"/></g><path fill="#472b29" d="M70.938,37.797c-0.122,0-0.244-0.044-0.341-0.134c-0.912-0.849-2.722-1.431-2.74-1.437	c-0.263-0.083-0.408-0.365-0.325-0.628c0.084-0.263,0.36-0.41,0.628-0.325c0.083,0.026,2.041,0.655,3.119,1.657	c0.202,0.188,0.213,0.504,0.025,0.707C71.205,37.743,71.071,37.797,70.938,37.797z"/><path fill="#472b29" d="M73.961,42.156c-0.21,0-0.406-0.134-0.476-0.344c-0.596-1.821-1.673-2.921-1.684-2.932	c-0.194-0.196-0.193-0.512,0.002-0.707c0.195-0.193,0.511-0.195,0.706,0c0.051,0.051,1.252,1.268,1.927,3.327	c0.086,0.263-0.058,0.545-0.32,0.631C74.064,42.148,74.013,42.156,73.961,42.156z"/></svg>