<svg xmlns="http://www.w3.org/2000/svg"  viewBox="0 0 50 50" width="50px" height="50px"><path d="M 34 4 C 33.186017 4 31.99205 4.1133314 30.910156 4.8457031 C 29.828262 5.5780748 29 6.9865516 29 9 C 29 11.072622 29.414562 13.119546 29.933594 14.712891 C 30.19311 15.509563 30.477054 16.189976 30.775391 16.726562 C 30.924559 16.994857 31.073343 17.227705 31.259766 17.439453 C 31.446188 17.651201 31.654839 17.898075 32.150391 17.984375 A 1.0001 1.0001 0 0 0 32.322266 18 C 33.209327 17.999391 33.787033 17.583417 34.550781 17.052734 C 35.31453 16.522051 36.144753 15.804293 36.933594 14.970703 C 38.511275 13.303524 40 11.220627 40 9 C 40 7.4144393 39.135431 6.0993039 37.990234 5.265625 C 36.845038 4.4319461 35.41442 4 34 4 z M 34 6 C 34.99058 6 36.058946 6.3342414 36.8125 6.8828125 C 37.566054 7.4313836 38 8.1145607 38 9 C 38 10.204373 36.877537 12.119382 35.480469 13.595703 C 34.781934 14.333863 34.035127 14.975902 33.410156 15.410156 C 32.938772 15.737693 32.724129 15.792156 32.589844 15.855469 C 32.563374 15.812839 32.552198 15.805639 32.523438 15.753906 C 32.317492 15.383494 32.065046 14.797078 31.835938 14.09375 C 31.377722 12.687094 31 10.799378 31 9 C 31 7.4744484 31.465644 6.8848314 32.03125 6.5019531 C 32.596856 6.1190748 33.403983 6 34 6 z M 41.068359 15.011719 C 39.294874 15.011719 37.729937 16.177228 36.449219 17.332031 C 35.80886 17.909433 35.257319 18.503521 34.84375 19.033203 C 34.636965 19.298044 34.465605 19.544413 34.328125 19.787109 C 34.190645 20.029806 34.041016 20.207805 34.041016 20.695312 C 34.041016 21.14658 34.232761 21.415261 34.400391 21.623047 C 34.56802 21.830833 34.754214 21.993766 34.966797 22.152344 C 35.391963 22.4695 35.924614 22.760682 36.552734 23.029297 C 37.808974 23.566527 39.436458 24 41.134766 24 C 42.224153 24 43.234943 23.727263 43.958984 23.027344 C 44.683026 22.327425 45 21.299587 45 20.150391 C 45 18.88848 44.616378 17.680283 43.957031 16.724609 C 43.297685 15.768936 42.292969 15.011719 41.068359 15.011719 z M 25 17 C 23.003372 17 21.185123 18.389702 19.386719 20.333984 C 17.588314 22.278267 15.815349 24.885616 14.205078 27.728516 C 10.984535 33.414316 8.4195231 39.950886 8.0195312 44.126953 A 1.0001 1.0001 0 0 0 9.1035156 45.21875 C 13.585278 44.824898 19.834021 41.978547 25.144531 38.539062 C 27.799786 36.81932 30.200317 34.949258 31.976562 33.109375 C 33.752809 31.269492 35 29.484061 35 27.603516 C 35 24.934185 33.394565 22.376272 31.427734 20.412109 C 29.460904 18.447947 27.152397 17 25 17 z M 41.068359 17.011719 C 41.444749 17.011719 41.906597 17.273001 42.3125 17.861328 C 42.718403 18.449654 43 19.310301 43 20.150391 C 43 20.956194 42.812318 21.354013 42.568359 21.589844 C 42.324401 21.825675 41.903378 22 41.134766 22 C 39.788073 22 38.369354 21.629723 37.339844 21.189453 C 36.84454 20.977637 36.452428 20.750035 36.207031 20.572266 C 36.272701 20.473706 36.320984 20.390387 36.419922 20.263672 C 36.746759 19.845073 37.234297 19.31663 37.789062 18.816406 C 38.898595 17.815959 40.346845 17.011719 41.068359 17.011719 z M 25 19 C 26.104603 19 28.296706 20.111538 30.015625 21.828125 C 31.734544 23.544712 33 25.787846 33 27.603516 C 33 28.467971 32.156489 30.043305 30.537109 31.720703 C 28.917729 33.398101 26.618339 35.203445 24.058594 36.861328 C 19.518031 39.802137 14.188244 42.17157 10.390625 42.923828 C 11.063191 39.237514 13.137726 33.67158 15.945312 28.714844 C 17.502667 25.965369 19.219717 23.461796 20.855469 21.693359 C 22.491221 19.924923 24.051128 19 25 19 z"/></svg>